# xmcd CD database file
#
# Track frame offsets:
#	150
#	31688
#	57026
#	76497
#	101410
#	122123
#	154164
#	192482
#	211612
#	228686
#
# Disc length: 3510 seconds
#
# Revision: 1
# Processed by: cddbd v1.5.2PL0 Copyright (c) Steve Scherf et al.
# Submitted via: CDex 1.51
#
DISCID=7a0db40a
DTITLE=Fabio Brignoli Trio - Filastorta e altri Racconti
DYEAR=2012
DGENRE=Jazz
TTITLE0=Misterioso
TTITLE1=Terry Style
TTITLE2=Fugazi
TTITLE3=Filastorta
TTITLE4=Bass Hit
TTITLE5=Acqua dei Buoi Street
TTITLE6=Trumpetunia con custodia di sax
TTITLE7=Ermenegildo
TTITLE8=No Surprises
TTITLE9=Goodbye Pork Pie Hat
EXTD=YEAR: 2012
EXTT0=
EXTT1=
EXTT2=
EXTT3=
EXTT4=
EXTT5=
EXTT6=
EXTT7=
EXTT8=
EXTT9=
PLAYORDER=
